# File created by Blade
# Date/Time:  Tue Jan 27 18:01:49 2015
# Frame Rate: 120.000 fps
#------------------------------------------------------
:FULLY-SPECIFIED
:DEGREES
3209
root -1.593794 31.959221 -6.408742 6.731006 15.041880 3.818740
Spine -6.008880 -13.064960 -3.406009
Head 9.441125 -6.307501 -1.166043
LeftShoulder -17.773811 19.188094 13.836513
LeftArm 25.535283 18.797821 -58.354471
LeftForeArm 1.474536 -0.000000 20.062659
LeftHand -11.373335 -0.000000 -2.437584
LeftHandThumb1 -26.253704 0.000000 33.147579
RightShoulder -16.770004 17.001210 -46.472866
RightArm 18.513447 63.793025 37.833194
RightForeArm 11.341200 -0.000000 58.637552
RightHand -9.554718 -0.000000 1.345791
RightHandThumb1 -24.326973 -0.000000 -32.862282
LeftUpLeg -2.341806 -4.801866 -0.335225
LeftLeg -0.350495 -0.000000 0.000000
LeftFoot -14.111266 13.555258 -24.587526
LeftToeBase 8.733972 -0.000000 -0.000000
RightUpLeg 2.003761 -8.041675 -3.068766
RightLeg -3.169998 -0.000000 0.000000
RightFoot -16.090285 -17.585914 11.148454
RightToeBase 5.246802 -0.000000 -0.000000
3210
root -1.599218 31.958442 -6.409155 6.707598 14.931532 3.790893
Spine -6.000288 -13.017296 -3.313548
Head 9.549786 -6.091677 -1.274601
LeftShoulder -17.958820 19.276499 13.979845
LeftArm 25.471519 17.185203 -57.658703
LeftForeArm 1.670199 -0.000000 20.524843
LeftHand -11.689348 0.000000 -2.423621
LeftHandThumb1 -26.253704 0.000000 33.147579
RightShoulder -16.781557 16.821551 -46.370592
RightArm 18.250607 63.289741 37.524623
RightForeArm 10.692122 -0.000000 57.783413
RightHand -9.587803 -0.000000 1.210986
RightHandThumb1 -24.326973 -0.000000 -32.862282
LeftUpLeg -2.317016 -4.733448 -0.313396
LeftLeg -0.342553 -0.000000 0.000000
LeftFoot -14.115810 13.566432 -24.536695
LeftToeBase 8.636613 -0.000000 -0.000000
RightUpLeg 1.999801 -7.976019 -3.045051
RightLeg -3.174082 -0.000000 0.000000
RightFoot -16.060569 -17.555065 11.113460
RightToeBase 5.210048 -0.000000 -0.000000
3211
root -1.602297 31.958951 -6.412949 6.747393 14.817746 3.791260
Spine -6.058177 -12.959211 -3.216980
Head 9.665044 -5.908468 -1.411250
LeftShoulder -18.140019 19.377186 14.072841
LeftArm 25.471377 15.574975 -56.873632
LeftForeArm 1.698755 -0.000000 20.871912
LeftHand -11.693180 0.000000 -2.161640
LeftHandThumb1 -26.253704 0.000000 33.147579
RightShoulder -16.807529 16.686847 -46.329344
RightArm 17.795116 62.695612 37.054292
RightForeArm 9.715595 -0.000000 56.975658
RightHand -9.868163 -0.000000 1.223148
RightHandThumb1 -24.326973 -0.000000 -32.862282
LeftUpLeg -2.366997 -4.652719 -0.319065
LeftLeg -0.317232 -0.000000 0.000000
LeftFoot -14.185647 13.603052 -24.642518
LeftToeBase 8.793361 -0.000000 -0.000000
RightUpLeg 1.931022 -7.905873 -3.048593
RightLeg -3.171489 -0.000000 0.000000
RightFoot -16.044887 -17.492668 11.108586
RightToeBase 5.287335 -0.000000 -0.000000
3212
root -1.608391 31.957979 -6.407918 6.741093 14.700480 3.776807
Spine -6.082413 -12.870607 -3.146556
Head 9.777289 -5.736332 -1.507829
LeftShoulder -18.233869 19.380662 14.268563
LeftArm 25.312510 13.987660 -56.158847
LeftForeArm 1.866547 0.000000 21.263975
LeftHand -11.911607 -0.000000 -1.935796
LeftHandThumb1 -26.253704 0.000000 33.147579
RightShoulder -16.840336 16.380983 -46.204749
RightArm 17.632175 62.249340 36.856831
RightForeArm 8.904088 -0.000000 56.148595
RightHand -10.010640 -0.000000 1.393198
RightHandThumb1 -24.326973 -0.000000 -32.862282
LeftUpLeg -2.338739 -4.563004 -0.305057
LeftLeg -0.329093 -0.000000 0.000000
LeftFoot -14.221289 13.610902 -24.673721
LeftToeBase 8.818521 -0.000000 -0.000000
RightUpLeg 1.933034 -7.856236 -3.034783
RightLeg -3.199039 -0.000000 0.000000
RightFoot -16.017535 -17.432196 11.082950
RightToeBase 5.256656 -0.000000 -0.000000
3213
root -1.613514 31.957808 -6.405970 6.742121 14.581619 3.765874
Spine -6.099471 -12.787447 -3.080849
Head 9.846318 -5.558184 -1.594039
LeftShoulder -18.334110 19.427198 14.450100
LeftArm 25.208710 12.320653 -55.455553
LeftForeArm 1.946591 -0.000000 21.594083
LeftHand -12.030709 -0.000000 -1.754124
LeftHandThumb1 -26.253704 0.000000 33.147579
RightShoulder -16.922810 16.362596 -46.177680
RightArm 17.091475 61.443704 36.332355
RightForeArm 7.687812 -0.000000 55.351122
RightHand -10.298001 -0.000000 1.293090
RightHandThumb1 -24.326973 -0.000000 -32.862282
LeftUpLeg -2.325543 -4.495002 -0.296289
LeftLeg -0.337993 -0.000000 0.000000
LeftFoot -14.241527 13.655125 -24.666446
LeftToeBase 8.785987 -0.000000 -0.000000
RightUpLeg 1.915419 -7.804799 -3.025177
RightLeg -3.214007 -0.000000 0.000000
RightFoot -15.984159 -17.384889 11.044621
RightToeBase 5.258702 -0.000000 -0.000000
3214
root -1.616596 31.957520 -6.402273 6.732502 14.440189 3.745168
Spine -6.116537 -12.693550 -3.001195
Head 9.919331 -5.344229 -1.670549
LeftShoulder -18.434471 19.467645 14.628872
LeftArm 25.091573 10.661786 -54.736330
LeftForeArm 1.960357 -0.000000 21.892135
LeftHand -12.116965 -0.000000 -1.602789
LeftHandThumb1 -26.253704 0.000000 33.147579
RightShoulder -16.934950 16.131774 -46.054430
RightArm 16.761342 60.844822 35.955204
RightForeArm 6.491672 -0.000000 54.545019
RightHand -10.647858 -0.000000 1.046329
RightHandThumb1 -24.326973 -0.000000 -32.862282
LeftUpLeg -2.292784 -4.419152 -0.286583
LeftLeg -0.346890 -0.000000 0.000000
LeftFoot -14.251632 13.686718 -24.623576
LeftToeBase 8.664855 -0.000000 -0.000000
RightUpLeg 1.904316 -7.749138 -3.015907
RightLeg -3.218342 -0.000000 0.000000
RightFoot -15.943759 -17.299275 11.002657
RightToeBase 5.176563 -0.000000 -0.000000
3215
root -1.623018 31.956844 -6.403635 6.739563 14.337822 3.729053
Spine -6.122106 -12.647988 -2.919793
Head 9.947995 -5.135935 -1.743582
LeftShoulder -18.552020 19.650831 14.735261
LeftArm 25.100121 8.812241 -54.025653
LeftForeArm 1.914274 -0.000000 22.175454
LeftHand -12.546674 -0.000000 -1.342788
LeftHandThumb1 -26.253704 0.000000 33.147579
RightShoulder -16.971208 15.873907 -45.940998
RightArm 16.518555 60.292202 35.698962
RightForeArm 5.208200 0.000000 53.748138
RightHand -11.012436 -0.000000 0.891557
RightHandThumb1 -24.326973 -0.000000 -32.862282
LeftUpLeg -2.310158 -4.343337 -0.268170
LeftLeg -0.318340 -0.000000 0.000000
LeftFoot -14.338505 13.692506 -24.742293
LeftToeBase 8.842549 -0.000000 -0.000000
RightUpLeg 1.872518 -7.729052 -2.998539
RightLeg -3.227129 -0.000000 0.000000
RightFoot -15.924469 -17.214909 10.988165
RightToeBase 5.254883 -0.000000 -0.000000
3216
root -1.627445 31.956225 -6.402998 6.744801 14.203085 3.709767
Spine -6.137434 -12.578885 -2.850007
Head 9.983527 -4.945687 -1.786932
LeftShoulder -18.624123 19.688912 14.954623
LeftArm 24.945323 7.041916 -53.422522
LeftForeArm 1.882164 -0.000000 22.394773
LeftHand -12.504789 -0.000000 -1.109069
LeftHandThumb1 -26.253704 0.000000 33.147579
RightShoulder -17.012738 15.836937 -45.852481
RightArm 16.025295 59.461137 35.154438
RightForeArm 3.956798 0.000000 52.886657
RightHand -11.285750 -0.000000 0.734517
RightHandThumb1 -24.326973 -0.000000 -32.862282
LeftUpLeg -2.306931 -4.260458 -0.256843
LeftLeg -0.318033 -0.000000 0.000000
LeftFoot -14.375359 13.742605 -24.748634
LeftToeBase 8.794825 -0.000000 -0.000000
RightUpLeg 1.849307 -7.642266 -2.984709
RightLeg -3.249515 -0.000000 0.000000
RightFoot -15.891414 -17.177055 10.964780
RightToeBase 5.203419 -0.000000 -0.000000
3217
root -1.630989 31.955987 -6.400984 6.743801 14.064919 3.699902
Spine -6.138540 -12.489684 -2.793780
Head 9.990282 -4.756708 -1.823828
LeftShoulder -18.659865 19.665303 15.201985
LeftArm 24.735017 5.294984 -52.830978
LeftForeArm 1.992653 -0.000000 22.595257
LeftHand -12.168257 -0.000000 -1.334819
LeftHandThumb1 -26.253704 0.000000 33.147579
RightShoulder -17.054069 15.673294 -45.720884
RightArm 15.706870 58.765755 34.769834
RightForeArm 2.485006 -0.000000 52.023480
RightHand -11.482933 0.000000 0.561599
RightHandThumb1 -24.326973 -0.000000 -32.862282
LeftUpLeg -2.290517 -4.199917 -0.257334
LeftLeg -0.322107 -0.000000 0.000000
LeftFoot -14.418809 13.820928 -24.748257
LeftToeBase 8.813761 -0.000000 -0.000000
RightUpLeg 1.837805 -7.565582 -2.985750
RightLeg -3.271256 -0.000000 0.000000
RightFoot -15.856360 -17.107145 10.928071
RightToeBase 5.183277 -0.000000 -0.000000
